<svg width="971" height="190" viewBox="0 0 971 190" fill="none" xmlns="http://www.w3.org/2000/svg">
<path d="M461.696 139.498C441.127 145.564 422.288 143.79 406.416 128.735C391.921 114.986 388.991 91.1699 398.479 71.7173C408.375 51.4281 429.456 45.4897 447.011 47.6102C477.104 51.2454 487.189 77.5447 485.975 99.8116C485.765 103.647 483.339 103.777 480.452 103.772C462.625 103.738 444.797 103.753 426.97 103.798C425.009 103.803 422.976 103.42 420.975 104.418C420.266 106.78 421.718 108.52 422.858 110.264C430.671 122.216 447.434 124.861 459.841 115.32C464.556 111.694 467.309 112.094 470.952 116.009C473.204 118.429 475.912 120.46 478.574 122.453C481.031 124.294 481.167 125.89 478.99 128.103C474.12 133.054 468.498 136.798 461.696 139.498ZM434.812 69.6971C427.073 72.2492 422.281 77.3214 420.793 85.7313C433.504 85.7313 445.778 85.7313 458.046 85.7313C457.875 74.2515 445.064 65.9601 434.812 69.6971Z" fill="url(#paint0_linear_4771_134)"/>
<path d="M777.664 137.405C758.347 145.63 739.985 144.87 722.768 133.036C707.855 122.785 701.062 101.864 705.871 82.6172C710.657 63.4633 724.609 50.6854 743.39 47.9432C779.246 42.708 799.37 68.9146 797.156 100.29C796.881 104.181 794.331 103.744 791.879 103.747C774.564 103.774 757.25 103.768 739.936 103.773C738.604 103.774 737.27 103.822 735.94 103.773C732.252 103.636 731.642 105.205 733.04 108.409C736.664 116.717 747.67 122.291 757.708 120.774C763.588 119.886 769.069 117.994 773.463 113.869C775.745 111.726 777.542 111.595 779.855 113.751C783.139 116.812 786.527 119.785 790.075 122.533C792.563 124.459 792.548 126.119 790.517 128.261C786.913 132.061 782.595 134.833 777.664 137.405ZM764.022 73.6527C757.815 67.8638 750.767 67.2551 743.302 70.6242C736.845 73.5384 733.536 78.9433 731.273 86.4044C741.723 86.4044 751.132 86.5023 760.537 86.3454C763.397 86.2977 767.376 87.9131 768.884 85.0722C770.642 81.7578 767.666 78.5865 765.807 75.6862C765.453 75.133 764.958 74.6697 764.022 73.6527Z" fill="url(#paint1_linear_4771_134)"/>
<path d="M577.303 152.778C572.364 162.076 567.51 170.999 562.873 180.034C561.241 183.213 559.154 184.719 555.449 184.606C548.044 184.378 540.626 184.538 533.351 184.538C532.569 181.024 534.267 179.169 535.317 177.208C565.175 121.426 595.11 65.6845 624.904 9.86815C626.814 6.29069 629.04 4.84543 633.09 5.01298C640.311 5.3118 647.553 5.09704 656.383 5.09704C629.579 55.1474 603.526 103.797 577.303 152.778Z" fill="url(#paint2_linear_4771_134)"/>
<path d="M374.422 127.923C362.853 142.801 335.408 150.375 316.003 131.763C314.386 132.799 315.15 134.435 315.142 135.751C315.079 146.242 314.868 156.742 315.231 167.222C315.411 172.402 313.525 173.987 308.598 173.671C303.29 173.332 297.943 173.506 292.616 173.619C289.253 173.691 287.719 172.261 287.727 168.895C287.772 149.578 287.764 130.26 287.803 110.942C287.806 109.088 287.946 107.072 289.915 106.204C297.623 102.806 305.383 99.5251 312.814 96.3339C314.488 97.8435 314.686 99.1854 314.996 100.469C318.184 113.66 327.466 120.652 339.763 119.118C350.223 117.812 358.302 107.489 358.512 95.3282C358.589 90.888 357.655 86.6516 355.715 82.7777C354.046 79.4436 355.13 78.0179 358.192 76.7965C363.601 74.638 369.017 72.4498 374.239 69.8827C377.818 68.1227 379.67 68.9285 381.073 72.5293C388.687 92.0623 387.811 110.558 374.422 127.923Z" fill="url(#paint3_linear_4771_134)"/>
<path d="M262.271 129.836C240.582 148.795 205.124 146.567 187.67 125.561C184.819 122.131 184.237 119.758 187.962 116.476C193.406 111.681 198.354 106.322 204.128 100.593C209.179 113.598 217.414 121.081 231.089 118.836C240.416 117.304 246.707 111.212 248.862 101.939C252.014 88.3768 246.902 78.1948 233.729 71.2179C239.692 65.2452 245.021 59.6327 250.686 54.382C252.67 52.5425 254.77 54.6634 256.49 55.8185C281.127 72.3698 284.545 107.465 263.61 128.547C263.258 128.902 262.892 129.244 262.271 129.836Z" fill="url(#paint4_linear_4771_134)"/>
<path d="M687.791 60.5329C689.147 63.2364 690.54 65.5488 691.405 68.0441C694.921 78.1807 695.991 87.5479 685.388 94.9114C679.84 98.7644 675.342 104.128 670.361 108.799C669.538 109.571 668.795 110.542 667.114 110.376C665.895 105.836 666.694 101.208 666.547 96.6516C666.386 91.6714 666.862 86.6624 665.191 81.8047C663.014 75.4796 658.736 71.9698 652.456 71.5538C644.945 71.0562 639.198 74.0713 636.378 80.1306C634.741 83.6493 634.089 87.3834 634.103 91.2896C634.155 105.952 634.006 120.615 634.171 135.276C634.216 139.332 632.943 140.987 628.751 140.794C622.931 140.526 617.089 140.641 611.26 140.741C608.247 140.793 607.164 139.564 607.231 136.555C607.419 128.229 607.421 119.897 607.409 111.567C607.405 109.166 607.926 107.014 609.073 104.89C616.112 91.8432 622.985 78.7061 630.09 65.6958C640.301 46.9993 665.013 41.5221 681.76 54.1018C684.054 55.825 685.985 57.86 687.791 60.5329Z" fill="url(#paint5_linear_4771_134)"/>
<path d="M943.189 91.119C941.935 82.7814 937.093 77.2439 930.184 72.4189C935.931 66.6218 941.131 61.3132 946.408 56.0828C948.77 53.7415 950.778 55.6399 952.541 57.034C966.47 68.0477 972.458 82.6664 970.636 100.094C968.546 120.072 957.632 133.911 938.448 139.829C918.353 146.028 899.652 142.917 883.677 128.119C880.148 124.849 880.22 122.356 883.722 119.16C888.733 114.586 893.426 109.665 898.125 105.02C899.808 105.143 900.207 106.348 900.828 107.3C907.233 117.115 917.188 121.382 926.78 118.416C937.444 115.119 943.73 105.937 943.473 94.0158C943.455 93.1857 943.355 92.3575 943.189 91.119Z" fill="url(#paint6_linear_4771_134)"/>
<path d="M572.244 96.7266C567.822 104.92 563.574 112.786 559.165 120.948C556.87 119.109 557.553 117.165 557.538 115.52C557.462 107.027 557.576 98.532 557.484 90.0392C557.409 83.0638 555.779 76.6141 548.994 73.1433C542.181 69.6586 535.751 71.3006 529.818 75.6661C521.639 81.6843 513.467 87.7126 505.265 93.7001C503.418 95.049 501.46 96.2477 497.932 98.5938C497.816 81.394 497.605 65.6272 498.233 49.1079C506.831 49.1079 514.92 49.0723 523.008 49.131C525.248 49.1473 525.466 50.935 525.688 52.6546C525.914 54.4058 525.229 56.3114 526.855 58.3841C532.574 52.102 539.717 48.7295 548.013 47.5356C564.571 45.1526 579.384 54.4906 583.439 69.8606C584.175 72.6534 583.968 74.9959 582.59 77.4853C579.122 83.7473 575.799 90.0891 572.244 96.7266Z" fill="url(#paint7_linear_4771_134)"/>
<path d="M372.058 59.0727C373.405 60.5372 374.782 61.5518 375.216 63.1394C374.72 65.2751 372.908 65.6375 371.462 66.2742C366.891 68.2855 362.157 69.9495 357.683 72.1465C353.089 74.4016 349.24 74.6274 344.222 72.1924C333.053 66.7738 319.541 73.6435 315.689 86.1658C314.639 89.5782 312.984 91.5327 309.763 92.7782C302.831 95.4589 296.328 99.2368 289.334 101.199C287.4 99.6932 287.714 97.9202 287.711 96.3125C287.683 82.4853 287.805 68.6569 287.651 54.8315C287.6 50.3232 289.191 48.5613 293.808 48.8924C298.78 49.249 303.839 49.3747 308.784 48.8627C314.043 48.3184 315.833 50.2721 315.108 55.2447C314.992 56.0429 315.182 56.8856 315.261 58.2305C334.497 43.0647 353.305 43.3869 372.058 59.0727Z" fill="url(#paint8_linear_4771_134)"/>
<path d="M808.708 96.3615C808.717 82.2157 808.829 68.5672 808.674 54.9218C808.622 50.4382 810.168 48.7104 814.795 48.9371C821.719 49.2763 828.672 49.0252 835.599 49.0252C836.983 53.5554 835.303 57.8954 837.524 62.2398C842.919 53.7405 850.056 48.5428 859.809 47.3708C865.626 46.6717 866.715 47.4506 866.808 53.1904C866.905 59.1801 866.833 65.1725 866.849 71.1636C866.856 73.7656 865.981 75.0546 862.986 74.8849C853.499 74.3472 846.122 78.5392 841.03 86.2533C837.902 90.9906 833.728 94.339 829.365 97.6458C823.035 102.444 816.703 107.24 808.708 111.8C808.708 106.82 808.708 101.84 808.708 96.3615Z" fill="url(#paint9_linear_4771_134)"/>
<path d="M909.912 48.0945C921.512 46.0729 932.296 46.8148 943.629 52.5083C937.337 58.7211 931.74 64.3193 926.047 69.8178C924.59 71.2257 922.556 70.6002 920.766 70.6299C908.337 70.8362 898.503 80.0631 898.149 92.5394C898.015 97.2622 896.549 100.688 893.09 103.807C887.819 108.56 882.888 113.689 877.274 119.184C870.13 107.055 868.545 94.6517 872.356 81.6843C877.842 63.0208 890.581 52.1004 909.912 48.0945Z" fill="url(#paint10_linear_4771_134)"/>
<path d="M235.009 47.953C239.176 48.5631 242.962 48.9477 247.201 51.7446C242.678 56.3306 238.425 60.6195 234.199 64.9347C231.047 68.153 227.816 70.4024 222.891 71.2431C212.428 73.0288 206.713 80.5143 204.527 90.5774C203.889 93.5101 202.733 95.8786 200.701 97.8987C194.728 103.834 189.286 110.335 182.608 115.524C175.558 107.996 174.739 85.2734 182.538 71.6137C192.48 54.1986 213.592 44.3769 235.009 47.953Z" fill="url(#paint11_linear_4771_134)"/>
<path d="M524.817 139.067C520.126 141.987 515.228 140.668 510.538 140.644C496.471 140.57 497.813 143.26 497.886 128.079C497.915 121.926 497.942 115.771 497.845 109.619C497.791 106.204 498.876 103.658 501.81 101.608C509.246 96.4124 516.506 90.964 524.979 84.7832C524.979 103.618 524.979 121.117 524.817 139.067Z" fill="url(#paint12_linear_4771_134)"/>
<path d="M694.049 110.372C694.036 119.173 693.924 127.476 694.055 135.776C694.112 139.362 692.829 140.894 689.126 140.777C682.988 140.583 676.839 140.651 670.696 140.723C667.737 140.757 666.481 139.454 666.529 136.528C666.609 131.547 666.567 126.565 666.558 121.584C666.555 120.036 666.846 118.609 668.018 117.495C675.837 110.063 683.652 102.629 691.496 95.2245C691.806 94.9321 692.392 94.933 693.483 94.6094C694.583 99.7753 693.805 104.864 694.049 110.372Z" fill="url(#paint13_linear_4771_134)"/>
<path d="M813.238 115.843C820.613 109.99 827.698 104.358 834.511 98.9414C836.398 99.9824 836.151 101.088 836.153 102.019C836.178 113.319 836.054 124.622 836.224 135.92C836.279 139.613 834.983 140.932 831.318 140.795C825.509 140.578 819.68 140.571 813.872 140.791C809.851 140.943 808.574 139.159 808.755 135.424C808.932 131.776 808.92 128.107 808.758 124.458C808.596 120.808 809.715 117.947 813.238 115.843Z" fill="url(#paint14_linear_4771_134)"/>
<path d="M126.677 5C125.583 8.28057 125.583 8.28043 124.833 9.73145L124.333 10.7129L123.797 11.7539C123.409 12.5163 123.023 13.2793 122.638 14.043L122.341 14.6328C121.388 16.5326 120.501 18.4603 119.619 20.3936C117.227 25.6159 114.677 30.7608 112.138 35.9131C110.192 39.8602 108.272 43.8201 106.378 47.792C105.543 49.541 104.701 51.2874 103.853 53.0303C102.022 56.8009 100.234 60.592 98.4893 64.4033C97.4028 66.7714 96.2653 69.1159 95.0771 71.4346C94.5334 72.5318 94.0502 73.6372 93.5781 74.7666L94.5918 74.7061C100.445 74.7265 106.133 77.505 110.329 81.4512C117.341 88.5316 118.309 97.7928 118.374 107.269C118.38 107.843 118.387 108.417 118.394 108.991C118.41 110.482 118.422 111.973 118.435 113.464C118.448 114.994 118.464 116.523 118.48 118.053C118.511 121.039 118.539 124.025 118.564 127.011C122.864 120.724 122.864 120.724 124.202 117.763L124.598 116.908C126.477 112.756 127.856 108.469 128.624 103.972L128.825 102.811C130.894 88.9439 127.336 74.6114 119.071 63.3076C118.584 62.6875 118.091 62.0727 117.591 61.4629L117.144 60.9121C112.002 54.6127 112.001 54.612 109.479 53.3506C109.684 51.8223 110.319 50.5467 110.998 49.1826L111.363 48.4365C111.754 47.64 112.147 46.844 112.541 46.0488C113.075 44.9626 113.609 43.876 114.142 42.7891L114.538 41.9824C115.715 39.5863 116.86 37.1748 117.974 34.749C118.818 32.9417 118.819 32.9416 119.538 32.582C122.344 34.4835 124.907 36.4944 127.361 38.833C128.103 39.5358 128.854 40.2026 129.638 40.8574C136.337 46.7032 141.469 54.7532 145.173 62.7607L145.465 63.3789C148.357 69.5284 150.138 75.8776 151.339 82.5547L151.57 83.8096C154.55 102.645 149.738 122.87 138.631 138.357C137.904 139.344 137.164 140.322 136.411 141.289L135.708 142.203C123.294 157.832 105.505 167.674 85.79 170.494L85.0352 170.602C73.1664 172.031 60.1173 170.721 49.1211 165.951L48.9648 166.477C48.3425 168.461 47.5022 170.253 46.5459 172.096C44.9169 175.287 43.3996 178.52 41.917 181.781L41.4424 182.821L41.0225 183.749C40.6848 184.447 40.6846 184.447 40.3604 184.771C39.7432 184.802 39.124 184.81 38.5059 184.809H37.3057L35.999 184.804L34.668 184.802C33.4993 184.8 32.3307 184.798 31.1621 184.794C29.9701 184.791 28.7779 184.789 27.5859 184.788C25.2465 184.785 22.9061 184.779 20.5654 184.771C21.0405 183.306 21.607 181.935 22.2881 180.555L22.6055 179.904C22.8291 179.446 23.0536 178.987 23.2783 178.529C23.7541 177.558 24.2289 176.586 24.7021 175.613L25.416 174.148C26.3354 172.265 27.2477 170.377 28.1514 168.486L28.5625 167.625C29.4867 165.688 30.4049 163.747 31.3223 161.807L33.1963 157.846C34.9953 154.043 36.8147 150.25 38.6553 146.467C40.0381 143.62 41.391 140.758 42.7129 137.882C45.0622 132.778 47.541 127.738 50.0098 122.69C51.1406 120.377 52.2558 118.056 53.3623 115.73C54.1513 114.073 54.9463 112.419 55.748 110.768C57.6376 106.875 59.5221 102.981 61.2754 99.0244C62.1281 97.1132 63.0499 95.2421 63.9902 93.373C65.2369 90.894 66.4482 88.3986 67.6582 85.9014L68.3867 84.4004C68.9924 83.1512 69.5979 81.9012 70.2031 80.6514C70.5133 80.0105 70.8238 79.3699 71.1348 78.7295C72.9396 75.0086 74.7355 71.2833 76.5059 67.5459L76.8828 66.751L78.4326 63.4775C80.597 58.908 82.8062 54.3616 85.0312 49.8213C86.8497 46.1084 88.6272 42.382 90.3506 38.624C92.0038 35.0355 93.7451 31.4913 95.4834 27.9434C97.2214 24.394 98.9202 20.833 100.549 17.2324C101.727 14.6326 102.992 12.0867 104.286 9.54297L106.558 5H126.677ZM76.7891 18.8525C81.2493 18.8623 85.619 19.0792 90.0088 19.9268L90.8359 20.0703L91.6426 20.2236L92.3672 20.3574L92.9287 20.5762C93.3108 21.723 93.0992 22.0534 92.5898 23.1016L92.2754 23.7246L91.9531 24.3799C91.6053 25.0873 91.2528 25.7926 90.9004 26.498C90.6607 26.9834 90.4214 27.4693 90.1826 27.9551C89.703 28.9298 89.223 29.9043 88.7412 30.8779C87.8141 32.7558 86.9119 34.6456 86.0127 36.5371C85.6167 37.3702 85.219 38.2024 84.8203 39.0342C84.528 39.6461 84.2379 40.26 83.9502 40.874C83.5182 41.6682 83.518 41.6687 82.8691 41.9932C82.3573 41.9156 81.8458 41.8369 81.335 41.7549C79.7394 41.5673 78.1258 41.6221 76.5215 41.6279L75.4482 41.624C73.5416 41.6263 71.6528 41.6909 69.751 41.833L68.5342 41.9229L67.6182 41.9932L67.6436 43.1963C67.7232 46.9758 67.7817 50.7562 67.8193 54.5361C67.8395 56.4787 67.8677 58.4203 67.9121 60.3623C68.1597 71.4378 66.8857 77.1463 62.0205 86.4082L61.5332 87.4287C60.6755 89.2392 59.8211 91.0513 58.9707 92.8652L57.6807 95.6162L57.3506 96.3184C55.3972 100.48 53.3982 104.618 51.3838 108.751L50.707 110.14L50.3779 110.814C48.9651 113.715 47.5803 116.63 46.2012 119.548H45.877V51.0791C44.0523 52.2956 42.4798 53.3526 40.9277 54.8311L40.4463 55.2783C33.3311 61.9298 27.8504 69.8856 25.1084 79.3096C25.0338 79.5648 24.9603 79.8209 24.8838 80.084C20.9269 94.0293 22.8029 108.635 29.7676 121.315C31.8813 125.035 34.5566 128.537 37.4893 131.646L38.1289 132.325L38.6992 132.9C39.0617 133.501 39.0626 133.501 38.9824 134.223C38.6959 135.279 38.2742 136.181 37.7891 137.163L37.498 137.759C37.1826 138.402 36.8651 139.045 36.5469 139.688C36.1035 140.591 35.661 141.494 35.2197 142.398L34.8799 143.095C34.1123 144.673 33.3628 146.261 32.6318 147.856L32.3389 148.495C31.877 149.502 31.4177 150.51 30.9619 151.52L30.4668 152.604L30.0352 153.558C29.6516 154.269 29.6518 154.269 29.0029 154.594C25.2469 151.748 21.5756 148.539 18.6191 144.858L17.7451 143.803C14.0981 139.359 10.8952 134.706 8.23438 129.607L7.87305 128.92C4.34773 122.145 2.04676 114.738 0.771484 107.217L0.589844 106.165C0.103755 102.996 0.0115178 99.848 0.000976562 96.6602V94.3174C0.012334 89.1063 0.305272 84.0933 1.41992 78.9854L1.59961 78.1504C4.49834 65.079 10.8479 53.9476 19.5918 43.9395L20.373 43.0371C21.8294 41.3785 23.4125 39.8355 25.1084 38.4229L26.0146 37.627C36.0114 28.8873 48.0657 22.9859 61.0264 20.1699L61.7021 20.0215C66.4186 19.0585 71.1344 18.8331 75.9336 18.8525H76.7891ZM84.4922 92.9395C83.2147 95.256 81.9959 97.5744 80.9004 99.9834C78.9566 104.281 76.9007 108.521 74.8193 112.754C72.3441 117.788 69.8854 122.826 67.5146 127.91C66.4292 130.239 65.3353 132.562 64.207 134.87L63.8135 135.673C63.1824 136.964 62.5513 138.254 61.9141 139.542C61.6793 140.016 61.4451 140.491 61.2119 140.966L60.8857 141.63C60.2491 142.903 59.7103 144.084 59.5059 145.508L60.1543 145.833C70.7848 149.199 84.187 150.209 94.5518 145.194L95.252 144.84C95.6673 144.63 96.0829 144.42 96.498 144.21C96.5198 139.579 96.5368 134.948 96.5469 130.317C96.5517 128.062 96.5573 125.806 96.5684 123.551C96.5781 121.573 96.5856 119.596 96.5889 117.618C96.5897 116.775 96.5908 115.931 96.5928 115.088C96.6314 109.048 97.3181 101.912 93.4062 96.8398C90.9769 94.1588 87.9731 93.3727 84.4922 92.9395Z" fill="url(#paint15_linear_4771_134)"/>
<defs>
<linearGradient id="paint0_linear_4771_134" x1="439.532" y1="47.2051" x2="439.532" y2="142.754" gradientUnits="userSpaceOnUse">
<stop stop-color="white"/>
<stop offset="1" stop-color="#87868A"/>
</linearGradient>
<linearGradient id="paint1_linear_4771_134" x1="750.833" y1="47.2734" x2="750.833" y2="142.866" gradientUnits="userSpaceOnUse">
<stop stop-color="white"/>
<stop offset="1" stop-color="#87868A"/>
</linearGradient>
<linearGradient id="paint2_linear_4771_134" x1="594.767" y1="5" x2="594.767" y2="184.612" gradientUnits="userSpaceOnUse">
<stop stop-color="white"/>
<stop offset="1" stop-color="#87868A"/>
</linearGradient>
<linearGradient id="paint3_linear_4771_134" x1="336.803" y1="68.9863" x2="336.803" y2="173.71" gradientUnits="userSpaceOnUse">
<stop stop-color="white"/>
<stop offset="1" stop-color="#87868A"/>
</linearGradient>
<linearGradient id="paint4_linear_4771_134" x1="231.358" y1="53.6602" x2="231.358" y2="142.784" gradientUnits="userSpaceOnUse">
<stop stop-color="white"/>
<stop offset="1" stop-color="#87868A"/>
</linearGradient>
<linearGradient id="paint5_linear_4771_134" x1="650.545" y1="47.3086" x2="650.545" y2="140.809" gradientUnits="userSpaceOnUse">
<stop stop-color="white"/>
<stop offset="1" stop-color="#87868A"/>
</linearGradient>
<linearGradient id="paint6_linear_4771_134" x1="926.008" y1="54.9785" x2="926.008" y2="142.842" gradientUnits="userSpaceOnUse">
<stop stop-color="white"/>
<stop offset="1" stop-color="#87868A"/>
</linearGradient>
<linearGradient id="paint7_linear_4771_134" x1="540.83" y1="47.166" x2="540.83" y2="120.948" gradientUnits="userSpaceOnUse">
<stop stop-color="white"/>
<stop offset="1" stop-color="#87868A"/>
</linearGradient>
<linearGradient id="paint8_linear_4771_134" x1="331.432" y1="47.0781" x2="331.432" y2="101.199" gradientUnits="userSpaceOnUse">
<stop stop-color="white"/>
<stop offset="1" stop-color="#87868A"/>
</linearGradient>
<linearGradient id="paint9_linear_4771_134" x1="837.766" y1="47.1562" x2="837.766" y2="111.8" gradientUnits="userSpaceOnUse">
<stop stop-color="white"/>
<stop offset="1" stop-color="#87868A"/>
</linearGradient>
<linearGradient id="paint10_linear_4771_134" x1="906.987" y1="47.0742" x2="906.987" y2="119.184" gradientUnits="userSpaceOnUse">
<stop stop-color="white"/>
<stop offset="1" stop-color="#87868A"/>
</linearGradient>
<linearGradient id="paint11_linear_4771_134" x1="212.101" y1="47.2227" x2="212.101" y2="115.524" gradientUnits="userSpaceOnUse">
<stop stop-color="white"/>
<stop offset="1" stop-color="#87868A"/>
</linearGradient>
<linearGradient id="paint12_linear_4771_134" x1="511.4" y1="84.7832" x2="511.4" y2="140.962" gradientUnits="userSpaceOnUse">
<stop stop-color="white"/>
<stop offset="1" stop-color="#87868A"/>
</linearGradient>
<linearGradient id="paint13_linear_4771_134" x1="680.309" y1="94.6094" x2="680.309" y2="140.783" gradientUnits="userSpaceOnUse">
<stop stop-color="white"/>
<stop offset="1" stop-color="#87868A"/>
</linearGradient>
<linearGradient id="paint14_linear_4771_134" x1="822.482" y1="98.9414" x2="822.482" y2="140.804" gradientUnits="userSpaceOnUse">
<stop stop-color="white"/>
<stop offset="1" stop-color="#87868A"/>
</linearGradient>
<linearGradient id="paint15_linear_4771_134" x1="76.2179" y1="5" x2="76.257" y2="195.642" gradientUnits="userSpaceOnUse">
<stop offset="0.296603" stop-color="white"/>
<stop offset="0.755493" stop-color="#6D6B71"/>
</linearGradient>
</defs>
</svg>
