<svg width="180" height="180" viewBox="0 0 180 180" fill="none" xmlns="http://www.w3.org/2000/svg">
<path d="M0 59.76C0 10.5476 10.5476 0 59.76 0H120.24C169.452 0 180 10.5476 180 59.76V120.24C180 169.452 169.452 180 120.24 180H59.76C10.5476 180 0 169.452 0 120.24V59.76Z" fill="black"/>
<path d="M129.826 19.2949C128.963 21.8838 128.962 21.8841 128.371 23.0293L127.976 23.8037L127.553 24.625C127.247 25.2266 126.942 25.829 126.638 26.4316L126.404 26.8965C125.652 28.3957 124.953 29.9168 124.256 31.4424C122.369 35.5636 120.356 39.6245 118.352 43.6904C116.817 46.805 115.302 49.9293 113.807 53.0635C113.148 54.4437 112.484 55.8219 111.815 57.1973C110.37 60.1729 108.959 63.1651 107.583 66.1729C106.725 68.0415 105.827 69.891 104.889 71.7207C104.46 72.5867 104.078 73.4593 103.706 74.3506L104.506 74.3027C109.125 74.3189 113.613 76.5119 116.924 79.626C122.457 85.2134 123.223 92.5213 123.274 99.999C123.279 100.452 123.283 100.906 123.289 101.358C123.301 102.535 123.312 103.712 123.322 104.889C123.332 106.096 123.345 107.302 123.358 108.509C123.382 110.865 123.404 113.223 123.423 115.579C126.817 110.618 126.817 110.617 127.873 108.28L128.185 107.606C129.668 104.329 130.756 100.947 131.362 97.3975L131.521 96.4814C133.153 85.5387 130.345 74.2289 123.824 65.3086C123.439 64.8191 123.05 64.3329 122.656 63.8516L122.302 63.417C118.244 58.4458 118.244 58.4458 116.253 57.4502C116.415 56.2442 116.916 55.2376 117.453 54.1611L117.741 53.5723C118.049 52.9437 118.36 52.316 118.67 51.6885C119.092 50.8311 119.513 49.9731 119.934 49.1152L120.247 48.4795C121.175 46.5887 122.078 44.6857 122.958 42.7715C123.624 41.3452 123.624 41.3453 124.192 41.0615C126.406 42.5621 128.429 44.1486 130.366 45.9941C130.951 46.5488 131.544 47.0741 132.163 47.5908C137.449 52.2039 141.498 58.557 144.421 64.876L144.652 65.3643C146.934 70.2171 148.339 75.2279 149.287 80.4971L149.47 81.4873C151.821 96.351 148.024 112.311 139.258 124.533C138.685 125.312 138.101 126.083 137.507 126.846L136.953 127.567C127.156 139.901 113.118 147.667 97.5601 149.893L96.9653 149.978C87.5992 151.106 77.3011 150.072 68.6235 146.308L68.5005 146.723C68.0093 148.288 67.3459 149.703 66.5913 151.157C65.3059 153.675 64.1079 156.226 62.938 158.8L62.564 159.62L62.2329 160.353C61.9664 160.904 61.9665 160.904 61.7104 161.16C61.2234 161.184 60.7344 161.189 60.2466 161.188H59.2993L58.2681 161.185L57.2183 161.184C56.2961 161.183 55.3739 161.181 54.4517 161.178C53.511 161.175 52.57 161.173 51.6294 161.172C49.7833 161.169 47.9365 161.166 46.0894 161.16C46.4642 160.004 46.9113 158.921 47.4487 157.832L47.6987 157.319C47.8752 156.958 48.0527 156.596 48.23 156.234C48.6056 155.468 48.9795 154.7 49.353 153.932L49.9175 152.776C50.643 151.29 51.3626 149.801 52.0757 148.309L52.3999 147.628C53.1291 146.099 53.8538 144.568 54.5776 143.037L56.0562 139.911C57.4759 136.91 58.9122 133.917 60.3647 130.932C61.456 128.685 62.5237 126.427 63.5669 124.157C65.4208 120.129 67.3765 116.152 69.3247 112.169C70.2171 110.343 71.0971 108.512 71.9702 106.677C72.5929 105.369 73.2203 104.063 73.853 102.76C75.3441 99.6877 76.8308 96.6157 78.2144 93.4932C78.8873 91.9849 79.6158 90.5091 80.3579 89.0342C81.3417 87.0778 82.2975 85.1084 83.2524 83.1377L83.8267 81.9531C84.3046 80.9673 84.7826 79.9814 85.2603 78.9951C85.5051 78.4893 85.7501 77.983 85.9956 77.4775C87.4198 74.5413 88.8368 71.6016 90.2339 68.6523L90.5317 68.0254L91.7544 65.4424C93.4624 61.8364 95.2055 58.248 96.9614 54.665C98.3965 51.735 99.7997 48.7947 101.16 45.8291C102.464 42.9973 103.838 40.2002 105.209 37.4004C106.581 34.5995 107.922 31.7896 109.208 28.9482C110.138 26.8967 111.136 24.8872 112.157 22.8799L113.949 19.2949H129.826ZM90.4575 30.2266C93.9772 30.2342 97.425 30.4054 100.889 31.0742L101.542 31.1875L102.178 31.3086L102.75 31.4141L103.194 31.5869C103.495 32.492 103.328 32.7528 102.926 33.5801L102.678 34.0713L102.423 34.5889C102.149 35.1469 101.871 35.7032 101.593 36.2598C101.404 36.6429 101.215 37.0267 101.027 37.4102C100.649 38.1791 100.269 38.9477 99.8892 39.7158C99.1576 41.1977 98.4454 42.69 97.7358 44.1826C97.4234 44.84 97.11 45.497 96.7954 46.1533C96.5648 46.6362 96.3359 47.1199 96.1089 47.6045C95.7678 48.2315 95.7675 48.2312 95.2554 48.4873C94.8514 48.4261 94.4476 48.3646 94.0444 48.2998C92.7854 48.1518 91.5125 48.1946 90.2466 48.1992L89.3999 48.1963C87.8953 48.1981 86.4046 48.2492 84.9038 48.3613L83.9429 48.4326L83.2202 48.4873L83.2407 49.4375C83.3035 52.42 83.3497 55.4029 83.3794 58.3857C83.3953 59.9187 83.4166 61.451 83.4517 62.9834C83.6471 71.7233 82.6424 76.2284 78.8032 83.5371L78.4185 84.3428C77.7416 85.7715 77.0671 87.2014 76.396 88.6328L75.3774 90.8037L75.1177 91.3574C73.5762 94.6417 71.9993 97.9077 70.4097 101.169L69.8755 102.265L69.6157 102.798C68.5008 105.087 67.4071 107.387 66.3188 109.689H66.063V55.6572C64.6231 56.6172 63.3825 57.4515 62.1577 58.6182L61.7778 58.9717C56.163 64.2206 51.8382 70.4988 49.6743 77.9355C49.6154 78.1371 49.557 78.3392 49.4966 78.5469C46.374 89.5516 47.855 101.077 53.3511 111.084C55.019 114.019 57.1297 116.782 59.4438 119.235L59.9497 119.771L60.3999 120.226C60.6859 120.7 60.6858 120.7 60.6226 121.27C60.3964 122.103 60.064 122.815 59.6812 123.59L59.4507 124.061C59.2019 124.568 58.9517 125.075 58.7007 125.582C58.3508 126.295 58.002 127.008 57.6538 127.722L57.3853 128.271C56.7796 129.516 56.1886 130.769 55.6118 132.028L55.3794 132.532C55.0149 133.327 54.6531 134.123 54.2935 134.92L53.9028 135.774L53.562 136.527C53.2594 137.089 53.2595 137.089 52.7476 137.345C49.7836 135.099 46.8863 132.568 44.5532 129.663L43.8638 128.829C40.9859 125.323 38.4586 121.65 36.3589 117.627L36.0728 117.085C33.2909 111.738 31.4756 105.893 30.4692 99.958L30.3257 99.1279C29.9422 96.6271 29.8692 94.1433 29.8608 91.6279V89.7793C29.8698 85.667 30.1013 81.7105 30.981 77.6797L31.1226 77.0205C33.4101 66.7054 38.4216 57.9222 45.3218 50.0244L45.937 49.3115C47.0862 48.0027 48.336 46.7857 49.6743 45.6709L50.3901 45.043C58.279 38.1462 67.7912 33.4888 78.019 31.2666L78.5513 31.1494C82.2732 30.3894 85.9945 30.2112 89.7817 30.2266H90.4575ZM96.5327 88.6836C95.5246 90.5116 94.5632 92.3412 93.6987 94.2422C92.1649 97.6336 90.5424 100.98 88.8999 104.32C86.9467 108.293 85.007 112.269 83.1362 116.28C82.2797 118.118 81.4162 119.952 80.5259 121.773L80.2153 122.406C79.7173 123.425 79.2192 124.444 78.7163 125.46C78.5311 125.834 78.3466 126.209 78.1626 126.583L77.9048 127.107C77.4024 128.113 76.9763 129.045 76.8149 130.168L77.3276 130.424C85.7165 133.08 96.2921 133.877 104.471 129.92L105.025 129.64C105.352 129.475 105.68 129.309 106.007 129.144C106.024 125.489 106.038 121.834 106.046 118.18C106.05 116.4 106.054 114.62 106.063 112.84C106.071 111.279 106.077 109.719 106.08 108.158C106.08 107.493 106.081 106.828 106.083 106.162C106.113 101.396 106.655 95.7647 103.568 91.7617C101.651 89.6459 99.2798 89.0254 96.5327 88.6836Z" fill="url(#paint0_linear_4772_143)"/>
<defs>
<linearGradient id="paint0_linear_4772_143" x1="90.0063" y1="19.2949" x2="90.0372" y2="169.737" gradientUnits="userSpaceOnUse">
<stop offset="0.296603" stop-color="white"/>
<stop offset="0.755493" stop-color="#6D6B71"/>
</linearGradient>
</defs>
</svg>
