<svg width="32" height="32" viewBox="0 0 32 32" fill="none" xmlns="http://www.w3.org/2000/svg">
<path d="M0 10.624C0 1.87514 1.87514 0 10.624 0H21.376C30.1249 0 32 1.87514 32 10.624V21.376C32 30.1249 30.1249 32 21.376 32H10.624C1.87514 32 0 30.1249 0 21.376V10.624Z" fill="black"/>
<path d="M23.0787 3.43555C22.9254 3.89533 22.9249 3.89538 22.8199 4.09863L22.7496 4.23633L22.6744 4.38281C22.6201 4.48972 22.5663 4.59701 22.5123 4.7041L22.4703 4.78613C22.3367 5.05266 22.2122 5.32351 22.0885 5.59473C21.7529 6.32739 21.3949 7.04963 21.0387 7.77246C20.7658 8.32603 20.4967 8.88143 20.2311 9.43848C20.1139 9.68386 19.9956 9.92931 19.8766 10.1738C19.6198 10.7027 19.3693 11.2349 19.1246 11.7695C18.9722 12.1016 18.8118 12.4307 18.6451 12.7559C18.569 12.9096 18.5013 13.0645 18.4352 13.2227L18.5777 13.2148C19.3988 13.2178 20.1962 13.6076 20.7848 14.1611C21.7683 15.1544 21.9045 16.453 21.9137 17.7822C21.9145 17.8628 21.9157 17.9439 21.9166 18.0244C21.9189 18.2334 21.9207 18.4424 21.9225 18.6514C21.9243 18.866 21.927 19.0813 21.9293 19.2959C21.9336 19.7147 21.9375 20.1339 21.941 20.5527C22.5443 19.6707 22.5443 19.6703 22.732 19.2549L22.7867 19.1348C23.0504 18.5523 23.2444 17.9512 23.3521 17.3203L23.3805 17.1572C23.6707 15.2119 23.1707 13.201 22.0113 11.6152C21.9431 11.5283 21.8743 11.4419 21.8043 11.3564L21.7408 11.2793C21.0195 10.3956 21.0196 10.3957 20.6656 10.2188C20.6944 10.0043 20.7842 9.82517 20.8795 9.63379L20.9303 9.5293C20.9851 9.41765 21.0401 9.3058 21.0953 9.19434C21.1702 9.04192 21.2451 8.88883 21.3199 8.73633L21.3756 8.62402C21.5406 8.28787 21.7017 7.94871 21.858 7.6084C21.9762 7.35549 21.9762 7.35497 22.0768 7.30469C22.4703 7.57141 22.8301 7.85363 23.1744 8.18164C23.2785 8.28021 23.3839 8.37399 23.4937 8.46582C24.4334 9.28583 25.1538 10.4148 25.6734 11.5381L25.7145 11.625C26.1202 12.4877 26.3702 13.3787 26.5387 14.3154L26.5709 14.4912C26.9889 17.1337 26.3138 19.9717 24.7555 22.1445C24.6536 22.2829 24.5494 22.4201 24.4439 22.5557L24.3453 22.6836C22.6037 24.8761 20.1081 26.2568 17.3424 26.6523L17.2369 26.668C15.572 26.8685 13.7414 26.6846 12.1988 26.0156L12.1764 26.0889C12.0891 26.3671 11.9716 26.6186 11.8375 26.877C11.609 27.3246 11.3961 27.7788 11.1881 28.2363L11.1207 28.3818L11.0621 28.5117C11.0148 28.6095 11.0146 28.61 10.9693 28.6553C10.8829 28.6595 10.7962 28.6613 10.7096 28.6611H10.5406L10.357 28.6602H10.1705C10.0068 28.66 9.84303 28.6597 9.6793 28.6592C9.51214 28.6588 9.3445 28.6584 9.17734 28.6582C8.84914 28.6577 8.52037 28.6563 8.19199 28.6553C8.25859 28.4499 8.33872 28.2579 8.43418 28.0645L8.47812 27.9727C8.50946 27.9084 8.54136 27.8444 8.57285 27.7803C8.63954 27.6441 8.70574 27.5074 8.77207 27.3711L8.87266 27.165C9.0016 26.9009 9.12971 26.6363 9.25644 26.3711L9.31406 26.25C9.44371 25.9782 9.57306 25.7058 9.70176 25.4336L9.96445 24.8779C10.2167 24.3446 10.472 23.8127 10.7301 23.2822C10.9241 22.8828 11.114 22.4806 11.2994 22.0771C11.629 21.3612 11.9766 20.6542 12.3229 19.9463C12.4815 19.6217 12.6383 19.296 12.7936 18.9697C12.9042 18.7372 13.016 18.5051 13.1285 18.2734C13.3936 17.7274 13.657 17.181 13.9029 16.626C14.0226 16.3578 14.1528 16.0952 14.2848 15.833C14.4596 15.4853 14.6297 15.1354 14.7994 14.7852L14.901 14.5742C14.9859 14.3991 15.071 14.224 15.1559 14.0488C15.1993 13.959 15.2431 13.869 15.2867 13.7793C15.5399 13.2573 15.7922 12.7343 16.0406 12.21L16.0934 12.0986L16.3102 11.6387C16.6137 10.9978 16.9239 10.3604 17.2359 9.72363C17.491 9.20278 17.7403 8.67952 17.982 8.15234C18.2139 7.64896 18.4589 7.15199 18.7027 6.6543C18.9466 6.15635 19.1852 5.6565 19.4137 5.15137C19.579 4.7867 19.7556 4.42907 19.9371 4.07227L20.2564 3.43555H23.0787ZM16.0797 5.37891C16.7053 5.38027 17.3184 5.41043 17.9342 5.5293L18.0504 5.5498L18.1637 5.57129L18.2652 5.58984L18.3443 5.62012C18.398 5.78101 18.3679 5.8276 18.2965 5.97461L18.2525 6.0625L18.2076 6.1543C18.1588 6.25353 18.1086 6.35221 18.0592 6.45117C18.0256 6.51918 17.9921 6.5872 17.9586 6.65527C17.8913 6.79198 17.824 6.92887 17.7564 7.06543C17.6264 7.32885 17.4998 7.59405 17.3736 7.85938C17.3181 7.97625 17.2626 8.09327 17.2066 8.20996C17.1657 8.29574 17.1249 8.38169 17.0846 8.46777C17.024 8.57916 17.024 8.5796 16.9332 8.625C16.8614 8.61412 16.7891 8.60331 16.7174 8.5918C16.4937 8.56552 16.2675 8.5734 16.0426 8.57422L15.8922 8.57324C15.6247 8.57356 15.3592 8.5826 15.0924 8.60254L14.9215 8.61523L14.7936 8.625L14.7965 8.79395C14.8077 9.32417 14.8166 9.85448 14.8219 10.3848C14.8247 10.6573 14.8283 10.9297 14.8346 11.2021C14.8693 12.7559 14.691 13.5571 14.0084 14.8564L13.94 14.999C13.8197 15.253 13.699 15.5072 13.5797 15.7617L13.399 16.1475L13.3531 16.2461C13.0791 16.8298 12.7987 17.4106 12.5162 17.9902L12.4205 18.1855L12.3746 18.2803C12.1765 18.6871 11.9821 19.0957 11.7887 19.5049H11.7428V9.89941C11.4868 10.07 11.2661 10.2184 11.0484 10.4258L10.9811 10.4893C9.98301 11.4223 9.21432 12.5384 8.82969 13.8604C8.81924 13.8961 8.80915 13.9319 8.79844 13.9688C8.24334 15.925 8.50605 17.974 9.48301 19.7529C9.77946 20.2747 10.1547 20.7661 10.566 21.2021L10.6559 21.2979L10.7359 21.3789C10.7867 21.4631 10.7872 21.4633 10.776 21.5645C10.7358 21.7125 10.677 21.839 10.609 21.9766L10.568 22.0605C10.5238 22.1507 10.4788 22.241 10.4342 22.3311C10.3721 22.4576 10.3104 22.5843 10.2486 22.7109L10.2008 22.8086C10.0931 23.03 9.98786 23.2528 9.88535 23.4766L9.84434 23.5664C9.77961 23.7075 9.71486 23.8487 9.65098 23.9902L9.58164 24.1426L9.52109 24.2764C9.46728 24.3762 9.46663 24.3764 9.37559 24.4219C8.84888 24.0228 8.33418 23.5728 7.91953 23.0566L7.79648 22.9082C7.28494 22.285 6.83575 21.6321 6.4625 20.917L6.41172 20.8203C5.91716 19.8698 5.59454 18.8305 5.41562 17.7754L5.39023 17.6279C5.31231 17.1198 5.30618 16.6156 5.30723 16.1025V15.9658C5.30882 15.2347 5.35007 14.531 5.50644 13.8145L5.53184 13.6973C5.9385 11.8638 6.82882 10.3023 8.05527 8.89844L8.16562 8.77148C8.36989 8.53888 8.59184 8.32215 8.82969 8.12402L8.95664 8.0127C10.3591 6.78659 12.0505 5.95853 13.8687 5.56348L13.9635 5.54297C14.625 5.40789 15.2864 5.37618 15.9596 5.37891H16.0797ZM17.1607 15.7725C16.9815 16.0974 16.8105 16.4228 16.6568 16.7607C16.3842 17.3636 16.0953 17.958 15.8033 18.5518C15.4561 19.258 15.1115 19.9655 14.7789 20.6787C14.6267 21.0053 14.4733 21.3316 14.315 21.6553L14.2594 21.7676C14.1709 21.9486 14.0821 22.13 13.9928 22.3105C13.96 22.3768 13.9277 22.4434 13.8951 22.5098L13.8492 22.6035C13.7599 22.7821 13.6836 22.9478 13.6549 23.1475L13.7467 23.1924C15.2379 23.6645 17.1179 23.8069 18.5719 23.1035L18.6705 23.0537C18.7288 23.0243 18.7871 22.9943 18.8453 22.9648C18.8484 22.3153 18.8507 21.6652 18.8521 21.0156C18.8528 20.6993 18.8535 20.3827 18.8551 20.0664C18.8564 19.7891 18.8576 19.5117 18.858 19.2344C18.8581 19.1162 18.8577 18.9981 18.858 18.8799C18.8634 18.0325 18.9605 17.031 18.4117 16.3193C18.0709 15.9432 17.6491 15.8332 17.1607 15.7725Z" fill="url(#paint0_linear_4772_143)"/>
<defs>
<linearGradient id="paint0_linear_4772_143" x1="15.9995" y1="3.43555" x2="16.005" y2="30.1808" gradientUnits="userSpaceOnUse">
<stop offset="0.296603" stop-color="white"/>
<stop offset="0.755493" stop-color="#6D6B71"/>
</linearGradient>
</defs>
</svg>
