<svg width="16" height="16" viewBox="0 0 16 16" fill="none" xmlns="http://www.w3.org/2000/svg">
<path d="M0 5.312C0 0.937568 0.937568 0 5.312 0H10.688C15.0624 0 16 0.937568 16 5.312V10.688C16 15.0624 15.0624 16 10.688 16H5.312C0.937568 16 0 15.0624 0 10.688V5.312Z" fill="black"/>
<path d="M11.5396 1.71484C11.4629 1.94488 11.4633 1.9451 11.4107 2.04688L11.3755 2.11523L11.3374 2.18848C11.3103 2.24192 11.2834 2.29607 11.2564 2.34961L11.2359 2.39062C11.1691 2.52388 11.1064 2.65932 11.0445 2.79492C10.8768 3.161 10.698 3.52165 10.5201 3.88281C10.3836 4.15968 10.2486 4.43819 10.1158 4.7168C10.0572 4.83937 9.99845 4.96184 9.93901 5.08398C9.81059 5.34847 9.6854 5.6145 9.56303 5.88184C9.48684 6.0479 9.4071 6.21239 9.32377 6.375C9.28567 6.45188 9.25138 6.52927 9.21831 6.6084L9.28959 6.60449C9.69997 6.60602 10.0989 6.80052 10.3931 7.07715C10.885 7.57382 10.953 8.22397 10.9576 8.88867C10.958 8.92891 10.9581 8.96955 10.9585 9.00977C10.9597 9.11422 10.9606 9.21881 10.9615 9.32324C10.9624 9.43036 10.9642 9.53744 10.9654 9.64453C10.9675 9.854 10.9695 10.064 10.9712 10.2734C11.2727 9.83268 11.273 9.83258 11.3667 9.625L11.3941 9.56445C11.5259 9.27324 11.6224 8.97262 11.6763 8.65723L11.691 8.57617C11.8361 7.60348 11.5861 6.5976 11.0064 5.80469C10.9724 5.76134 10.9378 5.7184 10.9029 5.67578L10.8716 5.63672C10.511 5.19486 10.5105 5.19492 10.3335 5.10645C10.3479 4.99938 10.3924 4.91 10.44 4.81445L10.4654 4.76172C10.4928 4.70597 10.5208 4.65039 10.5484 4.59473C10.5858 4.51852 10.6233 4.44149 10.6607 4.36523L10.688 4.30859C10.7705 4.14063 10.8512 3.9718 10.9292 3.80176C10.9885 3.67497 10.9892 3.67463 11.0396 3.64941C11.2362 3.78267 11.4154 3.92404 11.5874 4.08789C11.6395 4.13719 11.6926 4.18453 11.7476 4.23047C12.2174 4.64051 12.5777 5.20499 12.8374 5.7666L12.858 5.80957C13.0608 6.24093 13.1858 6.6869 13.2701 7.15527L13.2857 7.24316C13.4947 8.56436 13.1576 9.98295 12.3785 11.0693C12.3275 11.1386 12.276 11.2075 12.2232 11.2754L12.1734 11.3389C11.3026 12.4352 10.0543 13.1254 8.67143 13.3232L8.6187 13.3311C7.78634 13.4313 6.87133 13.3393 6.10014 13.0049L6.08842 13.042C6.04482 13.1809 5.98641 13.3065 5.91948 13.4355C5.80521 13.6594 5.69828 13.8865 5.59428 14.1152L5.56108 14.1885L5.53178 14.2529C5.50809 14.3019 5.50767 14.3024 5.48491 14.3252C5.44171 14.3273 5.39829 14.3272 5.35502 14.3271H5.08549C5.00379 14.3271 4.92208 14.3264 4.84038 14.3262C4.75685 14.326 4.67292 14.3263 4.5894 14.3262C4.4253 14.3259 4.26043 14.3257 4.09623 14.3252C4.12954 14.2225 4.16958 14.1261 4.21733 14.0293L4.23979 13.9834C4.25545 13.9513 4.27093 13.9188 4.28666 13.8867C4.32001 13.8187 4.35409 13.7508 4.38725 13.6826L4.43706 13.5801C4.50154 13.448 4.56509 13.3152 4.62846 13.1826L4.65776 13.1221C4.72255 12.9862 4.7868 12.8499 4.85112 12.7139L4.98295 12.4365C5.10915 12.1698 5.23665 11.9031 5.36577 11.6377C5.46266 11.4382 5.55732 11.2376 5.64995 11.0361C5.81467 10.6783 5.98857 10.3246 6.16166 9.9707C6.24093 9.80853 6.31945 9.64542 6.39702 9.48242C6.45236 9.36616 6.50874 9.24962 6.56498 9.13379C6.69747 8.86083 6.82975 8.58798 6.95268 8.31055C7.01249 8.17649 7.07715 8.04516 7.14311 7.91406C7.23056 7.74016 7.31507 7.56483 7.39995 7.38965L7.45073 7.28418C7.4932 7.19657 7.53621 7.10914 7.57866 7.02148C7.60041 6.97654 7.62227 6.93163 7.64409 6.88672C7.77066 6.62577 7.89688 6.36465 8.02104 6.10254L8.04741 6.0459L8.15581 5.81641C8.30758 5.49597 8.46266 5.17679 8.6187 4.8584C8.74619 4.59808 8.87091 4.33673 8.99174 4.07324C9.1077 3.82156 9.23018 3.57306 9.35209 3.32422C9.47397 3.07531 9.59335 2.82574 9.70756 2.57324C9.79023 2.39087 9.87851 2.21163 9.96928 2.0332L10.1285 1.71484H11.5396ZM8.04057 2.68652C8.35326 2.68721 8.65958 2.70234 8.96733 2.76172L9.02592 2.77148L9.08256 2.78223L9.13334 2.79199L9.17241 2.80762C9.19914 2.88791 9.18461 2.91105 9.14897 2.98438L9.12651 3.02832L9.10405 3.07422C9.0797 3.12373 9.05547 3.17328 9.03081 3.22266L8.87846 3.53027C8.8135 3.66187 8.75007 3.79421 8.68706 3.92676C8.65927 3.9852 8.63202 4.04418 8.60405 4.10254C8.58358 4.1454 8.56268 4.18844 8.54252 4.23145C8.51245 4.28674 8.51245 4.28701 8.46733 4.30957C8.43141 4.30413 8.39478 4.29873 8.35893 4.29297C8.24724 4.27988 8.13432 4.28377 8.02202 4.28418H7.94682C7.81307 4.28434 7.67984 4.28886 7.54643 4.29883L7.46147 4.30469L7.39702 4.30957L7.39897 4.39453C7.40455 4.65949 7.40903 4.92446 7.41166 5.18945C7.41308 5.32573 7.41441 5.4624 7.41752 5.59863C7.43486 6.37518 7.34552 6.7754 7.00444 7.4248L6.97026 7.49707C6.91016 7.62393 6.85016 7.75083 6.79057 7.87793L6.69975 8.07129L6.67729 8.12012C6.5403 8.41198 6.39961 8.70237 6.25834 8.99219L6.21147 9.08984L6.18803 9.1377C6.08897 9.34109 5.99176 9.54544 5.89506 9.75H5.8726V4.94727C5.74465 5.03257 5.63378 5.10631 5.52495 5.20996L5.49077 5.24121C4.99167 5.70778 4.60791 6.26669 4.41557 6.92773C4.41039 6.94545 4.40526 6.96319 4.39995 6.98145C4.12239 7.95964 4.2532 8.98455 4.74174 9.87402C4.89001 10.135 5.07801 10.3806 5.28373 10.5986L5.32866 10.6465L5.3687 10.6865C5.3941 10.7286 5.39385 10.7287 5.38823 10.7793C5.36815 10.8533 5.33917 10.9166 5.30522 10.9854L5.28471 11.0273C5.26262 11.0724 5.23962 11.1171 5.21733 11.1621C5.18624 11.2254 5.15549 11.2891 5.12456 11.3525L5.10112 11.4014C5.0473 11.5121 4.99417 11.6235 4.94291 11.7354L4.92241 11.7803C4.89004 11.8508 4.85767 11.9214 4.82573 11.9922L4.79155 12.0684L4.76127 12.1357C4.73439 12.1856 4.73354 12.1853 4.68803 12.208C4.42477 12.0085 4.16775 11.7834 3.96049 11.5254L3.89897 11.4512C3.64315 11.1395 3.41863 10.8127 3.23198 10.4551L3.20659 10.4072C2.9593 9.93198 2.79799 9.41232 2.70854 8.88477L2.69584 8.81152C2.6569 8.5576 2.65333 8.30525 2.65385 8.04883V7.98047C2.65465 7.61493 2.67527 7.26259 2.75346 6.9043L2.76616 6.8457C2.96951 5.92891 3.41556 5.14826 4.02885 4.44629L4.08354 4.38281C4.18563 4.26657 4.2967 4.15859 4.41557 4.05957L4.47905 4.00391C5.18028 3.39086 6.02596 2.97683 6.9351 2.7793L6.98198 2.76855C7.31268 2.70103 7.64353 2.68517 7.98002 2.68652H8.04057ZM8.58061 7.88281C8.49102 8.04528 8.40549 8.208 8.32866 8.37695C8.19233 8.67837 8.04787 8.9756 7.9019 9.27246C7.72827 9.62557 7.55648 9.97932 7.39018 10.3359C7.31404 10.4993 7.2369 10.6623 7.15776 10.8242L7.13041 10.8799C7.08623 10.9703 7.04222 11.0612 6.9976 11.1514C6.98114 11.1846 6.96416 11.2187 6.9478 11.252L6.92534 11.2979C6.88068 11.3872 6.843 11.4705 6.82866 11.5703L6.87358 11.5928C7.61926 11.8289 8.55962 11.8996 9.28666 11.5479L9.42338 11.4795C9.42491 11.1547 9.42561 10.8297 9.42631 10.5049C9.42665 10.3467 9.42749 10.1884 9.42827 10.0303C9.42895 9.89168 9.42901 9.75285 9.42924 9.61426C9.4293 9.55514 9.42911 9.49565 9.42924 9.43652C9.43195 9.01287 9.48091 8.51206 9.20659 8.15625C9.03617 7.96817 8.8248 7.9132 8.58061 7.88281Z" fill="url(#paint0_linear_4772_143)"/>
<defs>
<linearGradient id="paint0_linear_4772_143" x1="8.00006" y1="1.71484" x2="8.00281" y2="15.087" gradientUnits="userSpaceOnUse">
<stop offset="0.296603" stop-color="white"/>
<stop offset="0.755493" stop-color="#6D6B71"/>
</linearGradient>
</defs>
</svg>
